<?xml version="1.0" standalone="no"?>
<!DOCTYPE svg PUBLIC "-//W3C//DTD SVG 20010904//EN"
 "http://www.w3.org/TR/2001/REC-SVG-20010904/DTD/svg10.dtd">
<svg version="1.0" xmlns="http://www.w3.org/2000/svg"
 width="520.000000pt" height="520.000000pt" viewBox="0 0 520.000000 520.000000"
 preserveAspectRatio="xMidYMid meet">
<metadata>
Created by potrace 1.11, written by Peter Selinger 2001-2013
</metadata>
<g transform="translate(0.000000,520.000000) scale(0.100000,-0.100000)"
fill="#000000" stroke="none">
<path d="M1539 4896 c-2 -2 -49 -7 -104 -10 -249 -16 -502 -80 -672 -171 -339
-180 -555 -516 -667 -1035 -24 -113 -26 -119 -37 -200 -5 -41 -12 -86 -14 -99
-2 -14 -7 -54 -11 -90 -4 -36 -8 -79 -10 -96 -20 -190 -26 -848 -10 -1055 14
-192 14 -185 32 -330 9 -71 44 -271 54 -310 5 -19 11 -46 14 -60 2 -14 16 -65
30 -113 123 -416 331 -695 634 -849 133 -68 321 -124 477 -144 22 -3 51 -7 65
-10 142 -24 1448 -24 1575 0 11 2 47 7 80 11 97 11 253 41 365 70 621 161
1165 536 1498 1032 157 232 300 580 327 789 2 22 10 64 16 94 14 71 19 381 8
490 -31 299 -138 610 -297 870 -42 67 -138 207 -152 220 -3 3 -23 28 -45 55
-40 51 -226 240 -280 285 -130 108 -260 199 -400 280 -101 58 -290 150 -309
150 -6 0 -16 4 -22 9 -33 30 -396 135 -574 166 -139 24 -215 33 -340 41 -76 4
-1226 14 -1231 10z m2026 -1131 c208 -44 382 -118 565 -241 52 -34 108 -73
123 -86 l28 -23 -92 -85 c-51 -47 -127 -117 -168 -156 l-75 -71 -77 54 c-130
91 -303 161 -439 178 -51 6 -204 7 -235 1 -40 -7 -100 -18 -105 -18 -13 -2
-110 -38 -150 -57 -195 -93 -340 -265 -396 -472 -24 -87 -24 -280 0 -368 79
-294 299 -489 616 -546 64 -12 224 -12 306 0 131 19 235 57 357 128 l67 39 0
177 0 176 -360 0 c-337 0 -360 1 -361 17 0 10 -1 36 -1 58 0 22 1 109 1 193
l1 152 613 0 612 0 3 -464 3 -464 -53 -49 c-344 -320 -820 -476 -1254 -412
-136 20 -151 24 -260 59 -404 132 -676 410 -795 813 -7 23 -13 42 -15 42 -1 0
-44 -11 -96 -25 -127 -33 -163 -37 -393 -40 -110 -2 -207 -4 -216 -4 -14 -1
-16 -41 -17 -403 0 -222 -1 -411 -1 -420 -1 -17 -20 -18 -251 -18 l-250 0 0
1161 0 1160 478 -4 c262 -2 489 -7 504 -10 14 -3 41 -8 60 -12 181 -36 379
-152 459 -269 13 -20 27 -36 30 -36 3 0 21 14 40 31 115 104 267 195 417 249
48 18 94 33 102 35 83 20 165 36 215 41 33 4 62 8 64 10 12 11 324 -5 396 -21z"/>
<path d="M1306 3291 c-2 -3 -3 -132 -2 -286 l1 -280 190 1 c219 1 276 13 342
68 54 47 85 114 88 195 6 157 -60 252 -205 296 -29 9 -410 14 -414 6z"/>
</g>
</svg>
